G04*
G04 #@! TF.GenerationSoftware,Altium Limited,Altium Designer,21.2.2 (38)*
G04*
G04 Layer_Physical_Order=2*
G04 Layer_Color=16711680*
%FSLAX25Y25*%
%MOIN*%
G70*
G04*
G04 #@! TF.SameCoordinates,2A2BD39F-598F-431D-80C8-0E329A30C52D*
G04*
G04*
G04 #@! TF.FilePolarity,Positive*
G04*
G01*
G75*
%ADD19C,0.02500*%
%ADD20C,0.13780*%
%ADD21O,0.08661X0.15748*%
%ADD22C,0.11811*%
%ADD23C,0.29528*%
%ADD24C,0.15748*%
%ADD25C,0.07874*%
G36*
X279824Y517346D02*
X282566Y516611D01*
X285188Y515525D01*
X287646Y514106D01*
X289898Y512378D01*
X291905Y510371D01*
X293633Y508119D01*
X295053Y505661D01*
X296139Y503038D01*
X296873Y500296D01*
X297244Y497482D01*
X297244Y496063D01*
X297244Y496063D01*
X297244Y496063D01*
X297244Y78740D01*
X297244Y77321D01*
X296874Y74507D01*
X296139Y71765D01*
X295053Y69142D01*
X293634Y66684D01*
X291906Y64432D01*
X289898Y62425D01*
X287647Y60697D01*
X285188Y59278D01*
X282566Y58192D01*
X279824Y57457D01*
X277010Y57087D01*
X275590Y57087D01*
X137795D01*
X136376Y57087D01*
X133562Y57457D01*
X130820Y58192D01*
X128198Y59278D01*
X125739Y60697D01*
X123487Y62425D01*
X121480Y64432D01*
X119752Y66684D01*
X118333Y69142D01*
X117247Y71765D01*
X116512Y74507D01*
X116142Y77321D01*
X116142Y78740D01*
X116142Y496063D01*
X116142Y497482D01*
X116512Y500296D01*
X117247Y503038D01*
X118333Y505661D01*
X119752Y508119D01*
X121480Y510371D01*
X123487Y512378D01*
X125739Y514106D01*
X128198Y515525D01*
X130820Y516611D01*
X133562Y517346D01*
X136376Y517716D01*
X137795Y517716D01*
X137795Y517717D01*
X275590Y517717D01*
X277010Y517717D01*
X279824Y517346D01*
D02*
G37*
%LPC*%
G36*
X276831Y511827D02*
X274350D01*
X271899Y511439D01*
X269539Y510672D01*
X267329Y509545D01*
X265321Y508087D01*
X263567Y506332D01*
X262108Y504325D01*
X260982Y502114D01*
X260215Y499754D01*
X259827Y497304D01*
Y494822D01*
X260215Y492372D01*
X260982Y490012D01*
X262108Y487801D01*
X263567Y485794D01*
X265321Y484039D01*
X267329Y482581D01*
X269539Y481454D01*
X271899Y480687D01*
X274350Y480299D01*
X276831D01*
X279282Y480687D01*
X281642Y481454D01*
X283853Y482581D01*
X285860Y484039D01*
X287614Y485794D01*
X289073Y487801D01*
X290199Y490012D01*
X290966Y492372D01*
X291354Y494822D01*
Y497304D01*
X290966Y499754D01*
X290199Y502114D01*
X289073Y504325D01*
X287614Y506332D01*
X285860Y508087D01*
X283853Y509545D01*
X281642Y510672D01*
X279282Y511439D01*
X276831Y511827D01*
D02*
G37*
G36*
X139036D02*
X136555D01*
X134104Y511439D01*
X131744Y510672D01*
X129533Y509545D01*
X127526Y508087D01*
X125771Y506332D01*
X124313Y504325D01*
X123186Y502114D01*
X122420Y499754D01*
X122031Y497304D01*
Y494822D01*
X122420Y492372D01*
X123186Y490012D01*
X124313Y487801D01*
X125771Y485794D01*
X127526Y484039D01*
X129533Y482581D01*
X131744Y481454D01*
X134104Y480687D01*
X136555Y480299D01*
X139036D01*
X141487Y480687D01*
X143846Y481454D01*
X146057Y482581D01*
X148065Y484039D01*
X149819Y485794D01*
X151278Y487801D01*
X152404Y490012D01*
X153171Y492372D01*
X153559Y494822D01*
Y497304D01*
X153171Y499754D01*
X152404Y502114D01*
X151278Y504325D01*
X149819Y506332D01*
X148065Y508087D01*
X146057Y509545D01*
X143846Y510672D01*
X141487Y511439D01*
X139036Y511827D01*
D02*
G37*
G36*
X123228Y475613D02*
X121837Y475430D01*
X120540Y474893D01*
X119426Y474038D01*
X118572Y472925D01*
X118035Y471628D01*
X117852Y470236D01*
Y463150D01*
X118035Y461758D01*
X118572Y460461D01*
X119426Y459348D01*
X120540Y458493D01*
X121837Y457956D01*
X123228Y457773D01*
X124620Y457956D01*
X125917Y458493D01*
X127030Y459348D01*
X127885Y460461D01*
X128422Y461758D01*
X128605Y463150D01*
Y470236D01*
X128422Y471628D01*
X127885Y472925D01*
X127030Y474038D01*
X125917Y474893D01*
X124620Y475430D01*
X123228Y475613D01*
D02*
G37*
G36*
X173908Y463598D02*
X172548D01*
X171214Y463333D01*
X169957Y462813D01*
X168826Y462057D01*
X167865Y461095D01*
X167109Y459964D01*
X166588Y458707D01*
X166323Y457373D01*
Y456013D01*
X166588Y454679D01*
X167109Y453422D01*
X167865Y452291D01*
X168826Y451329D01*
X169957Y450573D01*
X171214Y450053D01*
X172548Y449787D01*
X173908D01*
X175243Y450053D01*
X176499Y450573D01*
X177630Y451329D01*
X178592Y452291D01*
X179348Y453422D01*
X179868Y454679D01*
X180134Y456013D01*
Y457373D01*
X179868Y458707D01*
X179348Y459964D01*
X178592Y461095D01*
X177630Y462057D01*
X176499Y462813D01*
X175243Y463333D01*
X173908Y463598D01*
D02*
G37*
G36*
X287291Y461630D02*
X285543D01*
X283829Y461289D01*
X282214Y460620D01*
X280761Y459649D01*
X279524Y458413D01*
X278553Y456959D01*
X277884Y455344D01*
X277543Y453630D01*
Y451882D01*
X277884Y450168D01*
X278553Y448553D01*
X279524Y447099D01*
X280761Y445863D01*
X282214Y444892D01*
X283829Y444223D01*
X285543Y443882D01*
X287291D01*
X289006Y444223D01*
X290621Y444892D01*
X292074Y445863D01*
X293310Y447099D01*
X294281Y448553D01*
X294950Y450168D01*
X295291Y451882D01*
Y453630D01*
X294950Y455344D01*
X294281Y456959D01*
X293310Y458413D01*
X292074Y459649D01*
X290621Y460620D01*
X289006Y461289D01*
X287291Y461630D01*
D02*
G37*
G36*
X226268D02*
X224520D01*
X222805Y461289D01*
X221190Y460620D01*
X219737Y459649D01*
X218501Y458413D01*
X217530Y456959D01*
X216861Y455344D01*
X216520Y453630D01*
Y451882D01*
X216861Y450168D01*
X217530Y448553D01*
X218501Y447099D01*
X219737Y445863D01*
X221190Y444892D01*
X222805Y444223D01*
X224520Y443882D01*
X226268D01*
X227982Y444223D01*
X229597Y444892D01*
X231051Y445863D01*
X232287Y447099D01*
X233258Y448553D01*
X233927Y450168D01*
X234268Y451882D01*
Y453630D01*
X233927Y455344D01*
X233258Y456959D01*
X232287Y458413D01*
X231051Y459649D01*
X229597Y460620D01*
X227982Y461289D01*
X226268Y461630D01*
D02*
G37*
G36*
X123228Y455613D02*
X121837Y455430D01*
X120540Y454893D01*
X119426Y454038D01*
X118572Y452925D01*
X118035Y451628D01*
X117852Y450236D01*
Y443150D01*
X118035Y441758D01*
X118572Y440461D01*
X119426Y439348D01*
X120540Y438493D01*
X121837Y437956D01*
X123228Y437773D01*
X124620Y437956D01*
X125917Y438493D01*
X127030Y439348D01*
X127885Y440461D01*
X128422Y441758D01*
X128605Y443150D01*
Y450236D01*
X128422Y451628D01*
X127885Y452925D01*
X127030Y454038D01*
X125917Y454893D01*
X124620Y455430D01*
X123228Y455613D01*
D02*
G37*
G36*
X147382Y431197D02*
X146082D01*
X144827Y430860D01*
X143701Y430210D01*
X142782Y429291D01*
X142132Y428165D01*
X141991Y427641D01*
X141473D01*
X141333Y428165D01*
X140683Y429291D01*
X139764Y430210D01*
X138638Y430860D01*
X137382Y431197D01*
X136082D01*
X134827Y430860D01*
X133701Y430210D01*
X132782Y429291D01*
X132279Y428420D01*
X132075Y428379D01*
X131331Y427882D01*
X127315Y423866D01*
X125346Y421898D01*
X124849Y421153D01*
X124674Y420276D01*
Y257874D01*
X124849Y256996D01*
X125346Y256252D01*
X153693Y227905D01*
X154437Y227408D01*
X155315Y227234D01*
X166625D01*
X166626Y227226D01*
X167221Y225790D01*
X168084Y224498D01*
X169183Y223399D01*
X170475Y222536D01*
X171911Y221941D01*
X173435Y221638D01*
X174990D01*
X176514Y221941D01*
X177950Y222536D01*
X179242Y223399D01*
X180341Y224498D01*
X181204Y225790D01*
X181799Y227226D01*
X182102Y228750D01*
Y230305D01*
X181799Y231829D01*
X181204Y233265D01*
X180341Y234557D01*
X179242Y235656D01*
X177950Y236519D01*
X176514Y237114D01*
X174990Y237417D01*
X173435D01*
X171911Y237114D01*
X170475Y236519D01*
X169183Y235656D01*
X168084Y234557D01*
X167221Y233265D01*
X166626Y231829D01*
X166625Y231822D01*
X156265D01*
X129263Y258824D01*
Y419325D01*
X130559Y420622D01*
X132974Y423036D01*
X133701Y422309D01*
X134827Y421659D01*
X135352Y421519D01*
Y421001D01*
X134827Y420860D01*
X133701Y420210D01*
X132782Y419291D01*
X132132Y418165D01*
X131795Y416910D01*
Y415610D01*
X132132Y414354D01*
X132782Y413228D01*
X133701Y412309D01*
X134827Y411659D01*
X136082Y411323D01*
X137382D01*
X138638Y411659D01*
X139764Y412309D01*
X140683Y413228D01*
X141333Y414354D01*
X141473Y414879D01*
X141991D01*
X142132Y414354D01*
X142782Y413228D01*
X143701Y412309D01*
X144827Y411659D01*
X146082Y411323D01*
X147382D01*
X148638Y411659D01*
X149764Y412309D01*
X150683Y413228D01*
X151333Y414354D01*
X151669Y415610D01*
Y416910D01*
X151333Y418165D01*
X150683Y419291D01*
X149764Y420210D01*
X148638Y420860D01*
X148113Y421001D01*
Y421519D01*
X148638Y421659D01*
X149764Y422309D01*
X150629Y423175D01*
X150837Y423272D01*
X151193Y423319D01*
X154202Y420310D01*
Y405478D01*
X132236Y383512D01*
X131739Y382768D01*
X131564Y381890D01*
Y261811D01*
X131739Y260933D01*
X132236Y260189D01*
X147984Y244441D01*
X148728Y243944D01*
X149606Y243769D01*
X166625D01*
X166626Y243762D01*
X167221Y242326D01*
X168084Y241034D01*
X169183Y239935D01*
X170475Y239071D01*
X171911Y238476D01*
X173435Y238173D01*
X174990D01*
X176514Y238476D01*
X177950Y239071D01*
X179242Y239935D01*
X180341Y241034D01*
X181204Y242326D01*
X181799Y243762D01*
X182102Y245286D01*
Y246840D01*
X181799Y248364D01*
X181204Y249800D01*
X180341Y251093D01*
X179242Y252191D01*
X177950Y253055D01*
X176514Y253650D01*
X174990Y253953D01*
X173435D01*
X171911Y253650D01*
X170475Y253055D01*
X169183Y252191D01*
X168084Y251093D01*
X167221Y249800D01*
X166626Y248364D01*
X166625Y248357D01*
X150557D01*
X136152Y262761D01*
Y380940D01*
X158118Y402905D01*
X158616Y403650D01*
X158790Y404528D01*
Y421260D01*
X158616Y422138D01*
X158118Y422882D01*
X153118Y427882D01*
X152374Y428379D01*
X151496Y428554D01*
X151109D01*
X150683Y429291D01*
X149764Y430210D01*
X148638Y430860D01*
X147382Y431197D01*
D02*
G37*
G36*
X287291Y414386D02*
X285543D01*
X283829Y414045D01*
X282214Y413376D01*
X280761Y412405D01*
X279524Y411169D01*
X278553Y409715D01*
X277884Y408100D01*
X277543Y406386D01*
Y404638D01*
X277884Y402923D01*
X278553Y401308D01*
X279524Y399855D01*
X280761Y398619D01*
X282214Y397648D01*
X283829Y396979D01*
X285543Y396638D01*
X287291D01*
X289006Y396979D01*
X290621Y397648D01*
X292074Y398619D01*
X293310Y399855D01*
X294281Y401308D01*
X294950Y402923D01*
X295291Y404638D01*
Y406386D01*
X294950Y408100D01*
X294281Y409715D01*
X293310Y411169D01*
X292074Y412405D01*
X290621Y413376D01*
X289006Y414045D01*
X287291Y414386D01*
D02*
G37*
G36*
X226268D02*
X224520D01*
X222805Y414045D01*
X221190Y413376D01*
X219737Y412405D01*
X218501Y411169D01*
X217530Y409715D01*
X216861Y408100D01*
X216520Y406386D01*
Y404638D01*
X216861Y402923D01*
X217530Y401308D01*
X218501Y399855D01*
X219737Y398619D01*
X221190Y397648D01*
X222805Y396979D01*
X224520Y396638D01*
X226268D01*
X227982Y396979D01*
X229597Y397648D01*
X231051Y398619D01*
X232287Y399855D01*
X233258Y401308D01*
X233927Y402923D01*
X234268Y404638D01*
Y406386D01*
X233927Y408100D01*
X233258Y409715D01*
X232287Y411169D01*
X231051Y412405D01*
X229597Y413376D01*
X227982Y414045D01*
X226268Y414386D01*
D02*
G37*
G36*
X196643Y390961D02*
X195089D01*
X193565Y390657D01*
X192129Y390063D01*
X190837Y389199D01*
X189738Y388100D01*
X188874Y386808D01*
X188280Y385372D01*
X187976Y383848D01*
Y382294D01*
X188280Y380769D01*
X188874Y379334D01*
X189738Y378041D01*
X190837Y376942D01*
X192129Y376079D01*
X193565Y375484D01*
X195089Y375181D01*
X196643D01*
X198168Y375484D01*
X199603Y376079D01*
X200896Y376942D01*
X201994Y378041D01*
X202858Y379334D01*
X203453Y380769D01*
X203756Y382294D01*
Y383848D01*
X203453Y385372D01*
X202858Y386808D01*
X201994Y388100D01*
X200896Y389199D01*
X199603Y390063D01*
X198168Y390657D01*
X196643Y390961D01*
D02*
G37*
G36*
Y374425D02*
X195089D01*
X193565Y374122D01*
X192129Y373527D01*
X190837Y372664D01*
X189738Y371565D01*
X188874Y370273D01*
X188280Y368837D01*
X187976Y367313D01*
Y365758D01*
X188280Y364234D01*
X188874Y362798D01*
X189738Y361506D01*
X190837Y360407D01*
X192129Y359544D01*
X193565Y358949D01*
X195089Y358646D01*
X196643D01*
X198168Y358949D01*
X199603Y359544D01*
X200896Y360407D01*
X201994Y361506D01*
X202858Y362798D01*
X203453Y364234D01*
X203756Y365758D01*
Y367313D01*
X203453Y368837D01*
X202858Y370273D01*
X201994Y371565D01*
X200896Y372664D01*
X199603Y373527D01*
X198168Y374122D01*
X196643Y374425D01*
D02*
G37*
G36*
X287291Y367142D02*
X285543D01*
X283829Y366801D01*
X282214Y366132D01*
X280761Y365161D01*
X279524Y363925D01*
X278553Y362471D01*
X277884Y360856D01*
X277543Y359142D01*
Y357394D01*
X277884Y355679D01*
X278553Y354064D01*
X279524Y352611D01*
X280761Y351375D01*
X282214Y350404D01*
X283829Y349735D01*
X285543Y349394D01*
X287291D01*
X289006Y349735D01*
X290621Y350404D01*
X292074Y351375D01*
X293310Y352611D01*
X294281Y354064D01*
X294950Y355679D01*
X295291Y357394D01*
Y359142D01*
X294950Y360856D01*
X294281Y362471D01*
X293310Y363925D01*
X292074Y365161D01*
X290621Y366132D01*
X289006Y366801D01*
X287291Y367142D01*
D02*
G37*
G36*
X226268D02*
X224520D01*
X222805Y366801D01*
X221190Y366132D01*
X219737Y365161D01*
X218501Y363925D01*
X217530Y362471D01*
X216861Y360856D01*
X216520Y359142D01*
Y357394D01*
X216861Y355679D01*
X217530Y354064D01*
X218501Y352611D01*
X219737Y351375D01*
X221190Y350404D01*
X222805Y349735D01*
X224520Y349394D01*
X226268D01*
X227982Y349735D01*
X229597Y350404D01*
X231051Y351375D01*
X232287Y352611D01*
X233258Y354064D01*
X233927Y355679D01*
X234268Y357394D01*
Y359142D01*
X233927Y360856D01*
X233258Y362471D01*
X232287Y363925D01*
X231051Y365161D01*
X229597Y366132D01*
X227982Y366801D01*
X226268Y367142D01*
D02*
G37*
G36*
X196643Y357890D02*
X195089D01*
X193565Y357587D01*
X192129Y356992D01*
X190837Y356128D01*
X189738Y355029D01*
X188874Y353737D01*
X188280Y352301D01*
X187976Y350777D01*
Y349223D01*
X188280Y347699D01*
X188874Y346263D01*
X189738Y344971D01*
X190837Y343872D01*
X192129Y343008D01*
X193565Y342413D01*
X195089Y342110D01*
X196643D01*
X198168Y342413D01*
X199603Y343008D01*
X200896Y343872D01*
X201994Y344971D01*
X202858Y346263D01*
X203453Y347699D01*
X203756Y349223D01*
Y350777D01*
X203453Y352301D01*
X202858Y353737D01*
X201994Y355029D01*
X200896Y356128D01*
X199603Y356992D01*
X198168Y357587D01*
X196643Y357890D01*
D02*
G37*
G36*
Y341354D02*
X195089D01*
X193565Y341051D01*
X192129Y340456D01*
X190837Y339593D01*
X189738Y338494D01*
X188874Y337202D01*
X188280Y335766D01*
X187976Y334242D01*
Y332687D01*
X188280Y331163D01*
X188874Y329727D01*
X189738Y328435D01*
X190837Y327336D01*
X192129Y326473D01*
X193565Y325878D01*
X195089Y325575D01*
X196643D01*
X198168Y325878D01*
X199603Y326473D01*
X200896Y327336D01*
X201994Y328435D01*
X202858Y329727D01*
X203453Y331163D01*
X203756Y332687D01*
Y334242D01*
X203453Y335766D01*
X202858Y337202D01*
X201994Y338494D01*
X200896Y339593D01*
X199603Y340456D01*
X198168Y341051D01*
X196643Y341354D01*
D02*
G37*
G36*
X287291Y319898D02*
X285543D01*
X283829Y319557D01*
X282214Y318888D01*
X280761Y317916D01*
X279524Y316681D01*
X278553Y315227D01*
X277884Y313612D01*
X277543Y311898D01*
Y310150D01*
X277884Y308435D01*
X278553Y306820D01*
X279524Y305367D01*
X280761Y304131D01*
X282214Y303160D01*
X283829Y302491D01*
X285543Y302150D01*
X287291D01*
X289006Y302491D01*
X290621Y303160D01*
X292074Y304131D01*
X293310Y305367D01*
X294281Y306820D01*
X294950Y308435D01*
X295291Y310150D01*
Y311898D01*
X294950Y313612D01*
X294281Y315227D01*
X293310Y316681D01*
X292074Y317916D01*
X290621Y318888D01*
X289006Y319557D01*
X287291Y319898D01*
D02*
G37*
G36*
X226268D02*
X224520D01*
X222805Y319557D01*
X221190Y318888D01*
X219737Y317916D01*
X218501Y316681D01*
X217530Y315227D01*
X216861Y313612D01*
X216520Y311898D01*
Y310150D01*
X216861Y308435D01*
X217530Y306820D01*
X218501Y305367D01*
X219737Y304131D01*
X221190Y303160D01*
X222805Y302491D01*
X224520Y302150D01*
X226268D01*
X227982Y302491D01*
X229597Y303160D01*
X231051Y304131D01*
X232287Y305367D01*
X233258Y306820D01*
X233927Y308435D01*
X234268Y310150D01*
Y311898D01*
X233927Y313612D01*
X233258Y315227D01*
X232287Y316681D01*
X231051Y317916D01*
X229597Y318888D01*
X227982Y319557D01*
X226268Y319898D01*
D02*
G37*
G36*
X203740Y318933D02*
X182087D01*
X181696Y318855D01*
X181366Y318634D01*
X164633Y301902D01*
X164412Y301571D01*
X164335Y301181D01*
Y291339D01*
X164412Y290948D01*
X164633Y290618D01*
X168570Y286681D01*
X168901Y286460D01*
X169291Y286382D01*
X169959D01*
X170111Y285882D01*
X169183Y285262D01*
X168084Y284163D01*
X167221Y282871D01*
X166626Y281435D01*
X166323Y279911D01*
Y278357D01*
X166626Y276833D01*
X167221Y275397D01*
X168084Y274104D01*
X169183Y273006D01*
X170475Y272142D01*
X171911Y271547D01*
X173435Y271244D01*
X174990D01*
X176514Y271547D01*
X177950Y272142D01*
X179242Y273006D01*
X180341Y274104D01*
X181204Y275397D01*
X181799Y276833D01*
X182102Y278357D01*
Y279911D01*
X181799Y281435D01*
X181204Y282871D01*
X180341Y284163D01*
X179242Y285262D01*
X178315Y285882D01*
X178466Y286382D01*
X182087D01*
X182477Y286460D01*
X182808Y286681D01*
X183792Y287665D01*
X184013Y287996D01*
X184090Y288386D01*
Y295837D01*
X192351Y304099D01*
X198397D01*
X203705Y298790D01*
Y282133D01*
X203205Y282034D01*
X202858Y282871D01*
X201994Y284163D01*
X200896Y285262D01*
X199603Y286126D01*
X198168Y286720D01*
X196643Y287024D01*
X195089D01*
X193565Y286720D01*
X192129Y286126D01*
X190837Y285262D01*
X189738Y284163D01*
X188874Y282871D01*
X188280Y281435D01*
X187976Y279911D01*
Y278357D01*
X188280Y276833D01*
X188874Y275397D01*
X189738Y274104D01*
X190837Y273006D01*
X192129Y272142D01*
X193565Y271547D01*
X195089Y271244D01*
X196643D01*
X198168Y271547D01*
X199603Y272142D01*
X200896Y273006D01*
X201994Y274104D01*
X202858Y275397D01*
X203205Y276234D01*
X203705Y276135D01*
Y268701D01*
X203782Y268311D01*
X204003Y267980D01*
X220736Y251248D01*
X221066Y251027D01*
X221457Y250949D01*
X231299D01*
X231689Y251027D01*
X232020Y251248D01*
X237926Y257153D01*
X238147Y257484D01*
X238224Y257874D01*
Y284449D01*
X238147Y284839D01*
X237926Y285170D01*
X204461Y318634D01*
X204130Y318855D01*
X203740Y318933D01*
D02*
G37*
G36*
X287291Y272654D02*
X285543D01*
X283829Y272312D01*
X282214Y271644D01*
X280761Y270672D01*
X279524Y269436D01*
X278553Y267983D01*
X277884Y266368D01*
X277543Y264653D01*
Y262906D01*
X277884Y261191D01*
X278553Y259576D01*
X279524Y258123D01*
X280761Y256887D01*
X282214Y255915D01*
X283829Y255246D01*
X285543Y254906D01*
X287291D01*
X289006Y255246D01*
X290621Y255915D01*
X292074Y256887D01*
X293310Y258123D01*
X294281Y259576D01*
X294950Y261191D01*
X295291Y262906D01*
Y264653D01*
X294950Y266368D01*
X294281Y267983D01*
X293310Y269436D01*
X292074Y270672D01*
X290621Y271644D01*
X289006Y272312D01*
X287291Y272654D01*
D02*
G37*
G36*
X196643Y270488D02*
X195089D01*
X193565Y270185D01*
X192129Y269590D01*
X190837Y268727D01*
X189738Y267628D01*
X188874Y266336D01*
X188280Y264900D01*
X187976Y263375D01*
Y261821D01*
X188280Y260297D01*
X188874Y258861D01*
X189738Y257569D01*
X190837Y256470D01*
X192129Y255607D01*
X193565Y255012D01*
X195089Y254709D01*
X196643D01*
X198168Y255012D01*
X199603Y255607D01*
X200896Y256470D01*
X201994Y257569D01*
X202858Y258861D01*
X203453Y260297D01*
X203756Y261821D01*
Y263375D01*
X203453Y264900D01*
X202858Y266336D01*
X201994Y267628D01*
X200896Y268727D01*
X199603Y269590D01*
X198168Y270185D01*
X196643Y270488D01*
D02*
G37*
G36*
X174990D02*
X173435D01*
X171911Y270185D01*
X170475Y269590D01*
X169183Y268727D01*
X168084Y267628D01*
X167221Y266336D01*
X166626Y264900D01*
X166323Y263375D01*
Y261821D01*
X166626Y260297D01*
X167221Y258861D01*
X168084Y257569D01*
X169183Y256470D01*
X170475Y255607D01*
X171911Y255012D01*
X173435Y254709D01*
X174990D01*
X176514Y255012D01*
X177950Y255607D01*
X179242Y256470D01*
X180341Y257569D01*
X181204Y258861D01*
X181799Y260297D01*
X182102Y261821D01*
Y263375D01*
X181799Y264900D01*
X181204Y266336D01*
X180341Y267628D01*
X179242Y268727D01*
X177950Y269590D01*
X176514Y270185D01*
X174990Y270488D01*
D02*
G37*
G36*
X196643Y253953D02*
X195089D01*
X193565Y253650D01*
X192129Y253055D01*
X190837Y252191D01*
X189738Y251093D01*
X188874Y249800D01*
X188280Y248364D01*
X187976Y246840D01*
Y245286D01*
X188280Y243762D01*
X188874Y242326D01*
X189738Y241034D01*
X190837Y239935D01*
X192129Y239071D01*
X193565Y238476D01*
X195089Y238173D01*
X196643D01*
X198168Y238476D01*
X199603Y239071D01*
X200896Y239935D01*
X201994Y241034D01*
X202858Y242326D01*
X203453Y243762D01*
X203756Y245286D01*
Y246840D01*
X203453Y248364D01*
X202858Y249800D01*
X201994Y251093D01*
X200896Y252191D01*
X199603Y253055D01*
X198168Y253650D01*
X196643Y253953D01*
D02*
G37*
G36*
Y237417D02*
X195089D01*
X193565Y237114D01*
X192129Y236519D01*
X190837Y235656D01*
X189738Y234557D01*
X188874Y233265D01*
X188280Y231829D01*
X187976Y230305D01*
Y228750D01*
X188280Y227226D01*
X188874Y225790D01*
X189738Y224498D01*
X190837Y223399D01*
X192129Y222536D01*
X193565Y221941D01*
X195089Y221638D01*
X196643D01*
X198168Y221941D01*
X199603Y222536D01*
X200896Y223399D01*
X201994Y224498D01*
X202858Y225790D01*
X203453Y227226D01*
X203756Y228750D01*
Y230305D01*
X203453Y231829D01*
X202858Y233265D01*
X201994Y234557D01*
X200896Y235656D01*
X199603Y236519D01*
X198168Y237114D01*
X196643Y237417D01*
D02*
G37*
G36*
X174990Y204346D02*
X173435D01*
X171911Y204043D01*
X170475Y203449D01*
X169183Y202585D01*
X168084Y201486D01*
X167221Y200194D01*
X166626Y198758D01*
X166323Y197234D01*
Y195680D01*
X166626Y194155D01*
X167221Y192719D01*
X168084Y191427D01*
X169183Y190328D01*
X170475Y189465D01*
X171911Y188870D01*
X173435Y188567D01*
X174990D01*
X176514Y188870D01*
X177950Y189465D01*
X179242Y190328D01*
X180341Y191427D01*
X181204Y192719D01*
X181799Y194155D01*
X182102Y195680D01*
Y197234D01*
X181799Y198758D01*
X181204Y200194D01*
X180341Y201486D01*
X179242Y202585D01*
X177950Y203449D01*
X176514Y204043D01*
X174990Y204346D01*
D02*
G37*
G36*
Y171276D02*
X173435D01*
X171911Y170972D01*
X170475Y170378D01*
X169183Y169514D01*
X168084Y168415D01*
X167221Y167123D01*
X166626Y165687D01*
X166323Y164163D01*
Y162609D01*
X166626Y161084D01*
X167221Y159649D01*
X168084Y158356D01*
X169183Y157257D01*
X170475Y156394D01*
X171911Y155799D01*
X173435Y155496D01*
X174990D01*
X176514Y155799D01*
X177950Y156394D01*
X179242Y157257D01*
X180341Y158356D01*
X181204Y159649D01*
X181799Y161084D01*
X182102Y162609D01*
Y164163D01*
X181799Y165687D01*
X181204Y167123D01*
X180341Y168415D01*
X179242Y169514D01*
X177950Y170378D01*
X176514Y170972D01*
X174990Y171276D01*
D02*
G37*
G36*
X196643Y138205D02*
X195089D01*
X193565Y137901D01*
X192129Y137307D01*
X190837Y136443D01*
X189738Y135344D01*
X188874Y134052D01*
X188280Y132616D01*
X187976Y131092D01*
Y129538D01*
X188280Y128014D01*
X188874Y126578D01*
X189738Y125285D01*
X190837Y124187D01*
X192129Y123323D01*
X193565Y122728D01*
X195089Y122425D01*
X196643D01*
X198168Y122728D01*
X199603Y123323D01*
X200896Y124187D01*
X201994Y125285D01*
X202858Y126578D01*
X203453Y128014D01*
X203756Y129538D01*
Y131092D01*
X203453Y132616D01*
X202858Y134052D01*
X201994Y135344D01*
X200896Y136443D01*
X199603Y137307D01*
X198168Y137901D01*
X196643Y138205D01*
D02*
G37*
G36*
X174990D02*
X173435D01*
X171911Y137901D01*
X170475Y137307D01*
X169183Y136443D01*
X168084Y135344D01*
X167221Y134052D01*
X166626Y132616D01*
X166323Y131092D01*
Y129538D01*
X166626Y128014D01*
X167221Y126578D01*
X168084Y125285D01*
X169183Y124187D01*
X170475Y123323D01*
X171911Y122728D01*
X173435Y122425D01*
X174990D01*
X176514Y122728D01*
X177950Y123323D01*
X179242Y124187D01*
X180341Y125285D01*
X181204Y126578D01*
X181799Y128014D01*
X182102Y129538D01*
Y131092D01*
X181799Y132616D01*
X181204Y134052D01*
X180341Y135344D01*
X179242Y136443D01*
X177950Y137307D01*
X176514Y137901D01*
X174990Y138205D01*
D02*
G37*
G36*
X196643Y121669D02*
X195089D01*
X193565Y121366D01*
X192129Y120771D01*
X190837Y119908D01*
X189738Y118809D01*
X188874Y117517D01*
X188280Y116081D01*
X187976Y114557D01*
Y113002D01*
X188280Y111478D01*
X188874Y110042D01*
X189738Y108750D01*
X190837Y107651D01*
X192129Y106788D01*
X193565Y106193D01*
X195089Y105890D01*
X196643D01*
X198168Y106193D01*
X199603Y106788D01*
X200896Y107651D01*
X201994Y108750D01*
X202858Y110042D01*
X203453Y111478D01*
X203756Y113002D01*
Y114557D01*
X203453Y116081D01*
X202858Y117517D01*
X201994Y118809D01*
X200896Y119908D01*
X199603Y120771D01*
X198168Y121366D01*
X196643Y121669D01*
D02*
G37*
G36*
X174990D02*
X173435D01*
X171911Y121366D01*
X170475Y120771D01*
X169183Y119908D01*
X168084Y118809D01*
X167221Y117517D01*
X166626Y116081D01*
X166323Y114557D01*
Y113002D01*
X166626Y111478D01*
X167221Y110042D01*
X168084Y108750D01*
X169183Y107651D01*
X170475Y106788D01*
X171911Y106193D01*
X173435Y105890D01*
X174990D01*
X176514Y106193D01*
X177950Y106788D01*
X179242Y107651D01*
X180341Y108750D01*
X181204Y110042D01*
X181799Y111478D01*
X182102Y113002D01*
Y114557D01*
X181799Y116081D01*
X181204Y117517D01*
X180341Y118809D01*
X179242Y119908D01*
X177950Y120771D01*
X176514Y121366D01*
X174990Y121669D01*
D02*
G37*
G36*
X188909Y463598D02*
X187548D01*
X186214Y463333D01*
X184957Y462813D01*
X183826Y462057D01*
X182864Y461095D01*
X182109Y459964D01*
X181588Y458707D01*
X181323Y457373D01*
Y456013D01*
X181588Y454679D01*
X182109Y453422D01*
X182864Y452291D01*
X183826Y451329D01*
X184957Y450573D01*
X185698Y450267D01*
Y449769D01*
X179168Y443239D01*
X134843D01*
X133965Y443064D01*
X133220Y442567D01*
X119441Y428788D01*
X118944Y428043D01*
X118769Y427165D01*
Y133858D01*
X118944Y132980D01*
X119441Y132236D01*
X156842Y94835D01*
X157587Y94337D01*
X158465Y94163D01*
X199803D01*
X200681Y94337D01*
X201425Y94835D01*
X210284Y103693D01*
X210781Y104437D01*
X210956Y105315D01*
Y158465D01*
X210781Y159343D01*
X210284Y160087D01*
X206347Y164024D01*
X205602Y164521D01*
X204724Y164696D01*
X203650D01*
X203453Y165687D01*
X202858Y167123D01*
X201994Y168415D01*
X200896Y169514D01*
X199603Y170378D01*
X198168Y170972D01*
X196643Y171276D01*
X195089D01*
X193565Y170972D01*
X192129Y170378D01*
X190837Y169514D01*
X189738Y168415D01*
X188874Y167123D01*
X188280Y165687D01*
X187976Y164163D01*
Y162609D01*
X188280Y161084D01*
X188874Y159649D01*
X189738Y158356D01*
X190837Y157257D01*
X192129Y156394D01*
X193565Y155799D01*
X195089Y155496D01*
X196643D01*
X198168Y155799D01*
X199603Y156394D01*
X200896Y157257D01*
X201994Y158356D01*
X202858Y159649D01*
X203048Y160108D01*
X203774D01*
X206367Y157514D01*
Y106265D01*
X198853Y98751D01*
X159415D01*
X123357Y134809D01*
Y426215D01*
X135793Y438651D01*
X180118D01*
X180996Y438825D01*
X181740Y439323D01*
X189614Y447197D01*
X190112Y447941D01*
X190286Y448819D01*
Y450071D01*
X191499Y450573D01*
X192630Y451329D01*
X193592Y452291D01*
X194348Y453422D01*
X194869Y454679D01*
X195134Y456013D01*
Y457373D01*
X194869Y458707D01*
X194348Y459964D01*
X193592Y461095D01*
X192630Y462057D01*
X191499Y462813D01*
X190243Y463333D01*
X188909Y463598D01*
D02*
G37*
G36*
X276831Y94504D02*
X274350D01*
X271899Y94116D01*
X269539Y93349D01*
X267329Y92222D01*
X265321Y90764D01*
X263567Y89010D01*
X262108Y87002D01*
X260982Y84791D01*
X260215Y82432D01*
X259827Y79981D01*
Y77500D01*
X260215Y75049D01*
X260982Y72689D01*
X262108Y70478D01*
X263567Y68471D01*
X265321Y66716D01*
X267329Y65258D01*
X269539Y64131D01*
X271899Y63364D01*
X274350Y62976D01*
X276831D01*
X279282Y63364D01*
X281642Y64131D01*
X283853Y65258D01*
X285860Y66716D01*
X287614Y68471D01*
X289073Y70478D01*
X290199Y72689D01*
X290966Y75049D01*
X291354Y77500D01*
Y79981D01*
X290966Y82432D01*
X290199Y84791D01*
X289073Y87002D01*
X287614Y89010D01*
X285860Y90764D01*
X283853Y92222D01*
X281642Y93349D01*
X279282Y94116D01*
X276831Y94504D01*
D02*
G37*
G36*
X139036D02*
X136555D01*
X134104Y94116D01*
X131744Y93349D01*
X129533Y92222D01*
X127526Y90764D01*
X125771Y89010D01*
X124313Y87002D01*
X123186Y84791D01*
X122420Y82432D01*
X122031Y79981D01*
Y77500D01*
X122420Y75049D01*
X123186Y72689D01*
X124313Y70478D01*
X125771Y68471D01*
X127526Y66716D01*
X129533Y65258D01*
X131744Y64131D01*
X134104Y63364D01*
X136555Y62976D01*
X139036D01*
X141487Y63364D01*
X143846Y64131D01*
X146057Y65258D01*
X148065Y66716D01*
X149819Y68471D01*
X151278Y70478D01*
X152404Y72689D01*
X153171Y75049D01*
X153559Y77500D01*
Y79981D01*
X153171Y82432D01*
X152404Y84791D01*
X151278Y87002D01*
X149819Y89010D01*
X148065Y90764D01*
X146057Y92222D01*
X143846Y93349D01*
X141487Y94116D01*
X139036Y94504D01*
D02*
G37*
%LPD*%
G36*
X237205Y284449D02*
Y257874D01*
X231299Y251969D01*
X221457D01*
X204724Y268701D01*
Y299213D01*
X198819Y305118D01*
X191929D01*
X183071Y296260D01*
Y288386D01*
X182087Y287402D01*
X169291D01*
X165354Y291339D01*
Y301181D01*
X182087Y317913D01*
X203740D01*
X237205Y284449D01*
D02*
G37*
D19*
X196850Y162402D02*
X204724D01*
X195866Y163386D02*
X196850Y162402D01*
X208661Y105315D02*
Y158465D01*
X204724Y162402D02*
X208661Y158465D01*
X199803Y96457D02*
X208661Y105315D01*
X187992Y448819D02*
Y456457D01*
X188228Y456693D01*
X180118Y440945D02*
X187992Y448819D01*
X134843Y440945D02*
X180118D01*
X121063Y427165D02*
X134843Y440945D01*
X121063Y133858D02*
Y427165D01*
Y133858D02*
X158465Y96457D01*
X126969Y257874D02*
X155315Y229528D01*
X126969Y420276D02*
X128937Y422244D01*
X128937Y422244D02*
X132953Y426260D01*
X126969Y257874D02*
Y420276D01*
X132953Y426260D02*
X136732D01*
X133858Y261811D02*
X149606Y246063D01*
X133858Y261811D02*
Y381890D01*
X156496Y404528D01*
X155315Y229528D02*
X174213D01*
X149606Y246063D02*
X174213D01*
X158465Y96457D02*
X199803D01*
X146732Y426260D02*
X151496D01*
X156496Y404528D02*
Y421260D01*
X151496Y426260D02*
X156496Y421260D01*
D20*
X174213Y113779D02*
D03*
Y130315D02*
D03*
X195866Y113779D02*
D03*
Y130315D02*
D03*
X174213Y295669D02*
D03*
Y279134D02*
D03*
X195866Y295669D02*
D03*
Y279134D02*
D03*
X174213Y146850D02*
D03*
Y163386D02*
D03*
X195866Y146850D02*
D03*
Y163386D02*
D03*
X174213Y262598D02*
D03*
Y246063D02*
D03*
X195866Y262598D02*
D03*
Y246063D02*
D03*
X174213Y229528D02*
D03*
Y179921D02*
D03*
Y196457D02*
D03*
Y212992D02*
D03*
X195866Y179921D02*
D03*
Y229528D02*
D03*
Y212992D02*
D03*
Y196457D02*
D03*
Y350000D02*
D03*
Y366535D02*
D03*
Y383071D02*
D03*
Y333465D02*
D03*
X174213Y366535D02*
D03*
Y350000D02*
D03*
Y333465D02*
D03*
Y383071D02*
D03*
D21*
X123228Y446693D02*
D03*
Y466693D02*
D03*
D22*
X203228Y456693D02*
D03*
X188228D02*
D03*
X173228D02*
D03*
D23*
X137795Y78740D02*
D03*
X275590D02*
D03*
X137795Y496063D02*
D03*
X275590D02*
D03*
D24*
X286417Y452756D02*
D03*
X225394D02*
D03*
X286417Y405512D02*
D03*
X225394D02*
D03*
X286417Y358268D02*
D03*
X225394D02*
D03*
X286417Y311024D02*
D03*
X225394D02*
D03*
Y263779D02*
D03*
X286417D02*
D03*
X225394Y216535D02*
D03*
X286417D02*
D03*
X225394Y169291D02*
D03*
X286417D02*
D03*
X225394Y122047D02*
D03*
X286417D02*
D03*
D25*
X136732Y416260D02*
D03*
X146732D02*
D03*
Y426260D02*
D03*
X136732D02*
D03*
M02*
