G04*
G04 #@! TF.GenerationSoftware,Altium Limited,Altium Designer,21.2.2 (38)*
G04*
G04 Layer_Physical_Order=1*
G04 Layer_Color=255*
%FSLAX25Y25*%
%MOIN*%
G70*
G04*
G04 #@! TF.SameCoordinates,2A2BD39F-598F-431D-80C8-0E329A30C52D*
G04*
G04*
G04 #@! TF.FilePolarity,Positive*
G04*
G01*
G75*
%ADD10C,0.01000*%
%ADD11R,0.02756X0.05118*%
%ADD19C,0.02500*%
%ADD20C,0.13780*%
%ADD21O,0.08661X0.15748*%
%ADD22C,0.11811*%
%ADD23C,0.29528*%
%ADD24C,0.15748*%
%ADD25C,0.07874*%
G36*
X279824Y517346D02*
X282566Y516611D01*
X285188Y515525D01*
X287646Y514106D01*
X289898Y512378D01*
X291905Y510371D01*
X293633Y508119D01*
X295053Y505661D01*
X296139Y503038D01*
X296873Y500296D01*
X297244Y497482D01*
X297244Y496063D01*
X297244Y496063D01*
X297244Y496063D01*
Y474445D01*
X210630D01*
X210240Y474367D01*
X209909Y474146D01*
X209688Y473815D01*
X209610Y473425D01*
Y464567D01*
X196850D01*
X196850Y449803D01*
X166945Y419898D01*
X159236D01*
Y418593D01*
X151086D01*
X150683Y419291D01*
X149764Y420210D01*
X148638Y420860D01*
X148113Y421001D01*
Y421519D01*
X148638Y421659D01*
X149764Y422309D01*
X150683Y423228D01*
X151333Y424354D01*
X151669Y425610D01*
Y426910D01*
X151333Y428165D01*
X150683Y429291D01*
X149764Y430210D01*
X148638Y430860D01*
X147382Y431197D01*
X146082D01*
X144827Y430860D01*
X143701Y430210D01*
X142782Y429291D01*
X142132Y428165D01*
X141991Y427641D01*
X141473D01*
X141333Y428165D01*
X140683Y429291D01*
X139764Y430210D01*
X138638Y430860D01*
X137382Y431197D01*
X136082D01*
X134827Y430860D01*
X133701Y430210D01*
X132782Y429291D01*
X132132Y428165D01*
X131795Y426910D01*
Y425610D01*
X132132Y424354D01*
X132782Y423228D01*
X133701Y422309D01*
X134827Y421659D01*
X135352Y421519D01*
Y421001D01*
X134827Y420860D01*
X133701Y420210D01*
X132782Y419291D01*
X132132Y418165D01*
X131795Y416910D01*
Y415610D01*
X132132Y414354D01*
X132782Y413228D01*
X133701Y412309D01*
X134517Y411838D01*
Y410433D01*
X134692Y409555D01*
X135189Y408811D01*
X139126Y404874D01*
X139870Y404377D01*
X140748Y404202D01*
X159236D01*
Y402937D01*
X169291D01*
Y384842D01*
Y378937D01*
X179134D01*
Y379921D01*
Y418765D01*
X184504Y424135D01*
X185004Y423928D01*
Y327194D01*
X179696Y321886D01*
X159449D01*
X159059Y321808D01*
X158728Y321587D01*
X146917Y309776D01*
X146696Y309445D01*
X146618Y309055D01*
Y263779D01*
X146696Y263389D01*
X146917Y263059D01*
X155775Y254200D01*
X156106Y253979D01*
X156496Y253902D01*
X171213D01*
X171313Y253402D01*
X170475Y253055D01*
X169183Y252191D01*
X168084Y251093D01*
X167221Y249800D01*
X166626Y248364D01*
X166323Y246840D01*
Y245286D01*
X166626Y243762D01*
X167221Y242326D01*
X168084Y241034D01*
X169183Y239935D01*
X170475Y239071D01*
X171911Y238476D01*
X173435Y238173D01*
X174990D01*
X176514Y238476D01*
X177950Y239071D01*
X179242Y239935D01*
X180341Y241034D01*
X180589Y241404D01*
X181067Y241259D01*
Y234332D01*
X180589Y234187D01*
X180341Y234557D01*
X179242Y235656D01*
X177950Y236519D01*
X176514Y237114D01*
X174990Y237417D01*
X173435D01*
X171911Y237114D01*
X170475Y236519D01*
X169183Y235656D01*
X168084Y234557D01*
X167221Y233265D01*
X166626Y231829D01*
X166323Y230305D01*
Y228750D01*
X166626Y227226D01*
X167221Y225790D01*
X168084Y224498D01*
X169183Y223399D01*
X170475Y222536D01*
X171911Y221941D01*
X173435Y221638D01*
X174990D01*
X176514Y221941D01*
X177950Y222536D01*
X179242Y223399D01*
X180341Y224498D01*
X180589Y224869D01*
X181067Y224724D01*
Y213848D01*
X181083Y213769D01*
Y212215D01*
X181067Y212136D01*
Y210068D01*
X176743Y205744D01*
X170276D01*
X169885Y205666D01*
X169555Y205445D01*
X165618Y201508D01*
X165397Y201178D01*
X165319Y200787D01*
Y190945D01*
X165397Y190555D01*
X165618Y190224D01*
X168570Y187271D01*
X168901Y187050D01*
X169291Y186972D01*
X176743D01*
X178117Y185599D01*
X178200Y185543D01*
X178271Y185472D01*
X178592Y185258D01*
X179549Y184301D01*
X179763Y183980D01*
X179834Y183909D01*
X179890Y183825D01*
X181067Y182649D01*
Y180778D01*
X181083Y180698D01*
Y179144D01*
X181067Y179065D01*
Y176603D01*
X176743Y172279D01*
X169291D01*
X168901Y172202D01*
X168570Y171981D01*
X165618Y169028D01*
X165397Y168697D01*
X165319Y168307D01*
Y159449D01*
X165397Y159059D01*
X165618Y158728D01*
X169555Y154791D01*
X169885Y154570D01*
X170276Y154492D01*
X179134D01*
X179524Y154570D01*
X179855Y154791D01*
X187501Y162437D01*
X188043Y162272D01*
X188280Y161084D01*
X188874Y159649D01*
X189738Y158356D01*
X190837Y157257D01*
X192129Y156394D01*
X193565Y155799D01*
X195089Y155496D01*
X196643D01*
X198168Y155799D01*
X199603Y156394D01*
X200896Y157257D01*
X201994Y158356D01*
X202858Y159649D01*
X203453Y161084D01*
X203756Y162609D01*
Y164163D01*
X203453Y165687D01*
X202858Y167123D01*
X201994Y168415D01*
X200896Y169514D01*
X199603Y170378D01*
X198168Y170972D01*
X196643Y171276D01*
X195089D01*
X193565Y170972D01*
X192129Y170378D01*
X190837Y169514D01*
X189738Y168415D01*
X188874Y167123D01*
X188528Y166286D01*
X188028Y166385D01*
Y217097D01*
X191367Y220437D01*
X193458D01*
X193547Y220455D01*
X193637Y220453D01*
X193740Y220493D01*
X193848Y220515D01*
X193923Y220565D01*
X194007Y220598D01*
X194087Y220674D01*
X194179Y220736D01*
X194229Y220811D01*
X194294Y220873D01*
X194339Y220974D01*
X194400Y221066D01*
X194418Y221155D01*
X194454Y221237D01*
X194561Y221722D01*
X194582Y221739D01*
X195089Y221638D01*
X196643D01*
X197151Y221739D01*
X197172Y221722D01*
X197278Y221237D01*
X197315Y221155D01*
X197332Y221066D01*
X197394Y220974D01*
X197438Y220873D01*
X197503Y220811D01*
X197553Y220736D01*
X197645Y220674D01*
X197725Y220598D01*
X197809Y220565D01*
X197884Y220515D01*
X197993Y220493D01*
X198096Y220453D01*
X198186Y220455D01*
X198274Y220437D01*
X199803D01*
X200193Y220515D01*
X200524Y220736D01*
X206430Y226641D01*
X206651Y226972D01*
X206728Y227362D01*
Y264341D01*
X230737Y288351D01*
X297244D01*
Y286453D01*
X230315D01*
X229925Y286375D01*
X229594Y286154D01*
X208925Y265485D01*
X208704Y265154D01*
X208626Y264764D01*
Y242126D01*
X208704Y241736D01*
X208925Y241405D01*
X209256Y241184D01*
X209646Y241106D01*
X226940D01*
X241106Y226940D01*
Y115580D01*
X234814Y109287D01*
X215973D01*
X202493Y122768D01*
X202162Y122989D01*
X201772Y123067D01*
X200120D01*
X199968Y123567D01*
X200896Y124187D01*
X201994Y125285D01*
X202858Y126578D01*
X203453Y128014D01*
X203756Y129538D01*
Y131092D01*
X203453Y132616D01*
X202858Y134052D01*
X201994Y135344D01*
X200896Y136443D01*
X199603Y137307D01*
X198168Y137901D01*
X196643Y138205D01*
X195089D01*
X193565Y137901D01*
X192129Y137307D01*
X190837Y136443D01*
X189738Y135344D01*
X188874Y134052D01*
X188280Y132616D01*
X188139Y131908D01*
X188053Y131849D01*
X187599Y131756D01*
X179855Y139500D01*
X179524Y139722D01*
X179134Y139799D01*
X169291D01*
X168901Y139722D01*
X168570Y139500D01*
X165618Y136548D01*
X165397Y136217D01*
X165319Y135827D01*
Y93504D01*
X165397Y93114D01*
X165618Y92783D01*
X178413Y79988D01*
X178744Y79767D01*
X179134Y79689D01*
X246063D01*
X246453Y79767D01*
X246784Y79988D01*
X270406Y103610D01*
X270627Y103940D01*
X270705Y104331D01*
Y224971D01*
X286840Y241106D01*
X297244D01*
X297244Y78740D01*
X297244Y77321D01*
X296874Y74507D01*
X296139Y71765D01*
X295053Y69142D01*
X293634Y66684D01*
X291906Y64432D01*
X289898Y62425D01*
X287647Y60697D01*
X285188Y59278D01*
X282566Y58192D01*
X279824Y57457D01*
X277010Y57087D01*
X275590Y57087D01*
X137795D01*
X136376Y57087D01*
X133562Y57457D01*
X130820Y58192D01*
X128198Y59278D01*
X125739Y60697D01*
X123487Y62425D01*
X121480Y64432D01*
X119752Y66684D01*
X118333Y69142D01*
X117247Y71765D01*
X116512Y74507D01*
X116142Y77321D01*
X116142Y78740D01*
X116142Y496063D01*
X116142Y497482D01*
X116512Y500296D01*
X117247Y503038D01*
X118333Y505661D01*
X119752Y508119D01*
X121480Y510371D01*
X123487Y512378D01*
X125739Y514106D01*
X128198Y515525D01*
X130820Y516611D01*
X133562Y517346D01*
X136376Y517716D01*
X137795Y517716D01*
X137795Y517717D01*
X275590Y517717D01*
X277010Y517717D01*
X279824Y517346D01*
D02*
G37*
G36*
X142132Y414354D02*
X142782Y413228D01*
X143701Y412309D01*
X144827Y411659D01*
X146082Y411323D01*
X147382D01*
X148638Y411659D01*
X149764Y412309D01*
X150683Y413228D01*
X151131Y414005D01*
X159236D01*
Y412780D01*
X163992D01*
Y410055D01*
X159236D01*
Y408790D01*
X141698D01*
X139105Y411383D01*
Y411929D01*
X139764Y412309D01*
X140683Y413228D01*
X141333Y414354D01*
X141473Y414879D01*
X141991D01*
X142132Y414354D01*
D02*
G37*
G36*
X297244Y380941D02*
X209646D01*
X209256Y380863D01*
X208925Y380642D01*
X208704Y380311D01*
X208626Y379921D01*
Y296682D01*
X200365Y288421D01*
X190945D01*
X190555Y288344D01*
X190224Y288123D01*
X185347Y283246D01*
X185197Y283201D01*
X184882D01*
X184731Y283246D01*
X179855Y288123D01*
X179524Y288344D01*
X179134Y288421D01*
X178466D01*
X178314Y288921D01*
X179242Y289541D01*
X180341Y290640D01*
X181204Y291932D01*
X181799Y293368D01*
X182102Y294892D01*
Y296446D01*
X181799Y297971D01*
X181204Y299407D01*
X180341Y300699D01*
X179242Y301798D01*
X177950Y302661D01*
X176514Y303256D01*
X174990Y303559D01*
X173435D01*
X171911Y303256D01*
X170475Y302661D01*
X169183Y301798D01*
X168084Y300699D01*
X167221Y299407D01*
X166626Y297971D01*
X166323Y296446D01*
Y294892D01*
X166626Y293368D01*
X167221Y291932D01*
X167847Y290995D01*
X167459Y290676D01*
X165390Y292745D01*
Y299775D01*
X170698Y305083D01*
X190945D01*
X191335Y305160D01*
X191666Y305381D01*
X206430Y320145D01*
X206651Y320476D01*
X206728Y320866D01*
Y379499D01*
X210068Y382839D01*
X297244D01*
Y380941D01*
D02*
G37*
G36*
X297244Y383858D02*
X209646D01*
X205709Y379921D01*
Y320866D01*
X190945Y306102D01*
X170276D01*
X164370Y300197D01*
Y292323D01*
X169291Y287402D01*
X179134D01*
X184055Y282480D01*
Y258858D01*
X180118Y254921D01*
X156496D01*
X147638Y263779D01*
Y309055D01*
X159449Y320866D01*
X180118D01*
X186024Y326772D01*
Y424213D01*
X210630Y448819D01*
Y473425D01*
X297244D01*
Y383858D01*
D02*
G37*
G36*
Y289370D02*
X230315D01*
X205709Y264764D01*
Y227362D01*
X199803Y221457D01*
X198274D01*
X198168Y221941D01*
X199603Y222536D01*
X200896Y223399D01*
X201994Y224498D01*
X202858Y225790D01*
X203453Y227226D01*
X203756Y228750D01*
Y230305D01*
X203453Y231829D01*
X202858Y233265D01*
X201994Y234557D01*
X200896Y235656D01*
X199603Y236519D01*
X198168Y237114D01*
X196643Y237417D01*
X195089D01*
X193565Y237114D01*
X192129Y236519D01*
X190837Y235656D01*
X189738Y234557D01*
X188874Y233265D01*
X188280Y231829D01*
X187976Y230305D01*
Y228750D01*
X188280Y227226D01*
X188874Y225790D01*
X189738Y224498D01*
X190837Y223399D01*
X192129Y222536D01*
X193565Y221941D01*
X193458Y221457D01*
X190945D01*
X187008Y217520D01*
Y163386D01*
X179134Y155512D01*
X170276D01*
X166339Y159449D01*
Y168307D01*
X169291Y171260D01*
X177165D01*
X182087Y176181D01*
Y179065D01*
X182102Y179144D01*
Y180698D01*
X182087Y180778D01*
Y183071D01*
X180611Y184546D01*
X180341Y184951D01*
X179242Y186050D01*
X178838Y186320D01*
X177165Y187992D01*
X169291D01*
X166339Y190945D01*
Y200787D01*
X170276Y204724D01*
X177165D01*
X182087Y209646D01*
Y212136D01*
X182102Y212215D01*
Y213769D01*
X182087Y213848D01*
Y228671D01*
X182102Y228750D01*
Y230305D01*
X182087Y230384D01*
Y245207D01*
X182102Y245286D01*
Y246840D01*
X182087Y246919D01*
Y253937D01*
X186024Y257874D01*
X186043D01*
X186024Y258858D01*
Y282480D01*
X190945Y287402D01*
X200787D01*
X209646Y296260D01*
Y379921D01*
X297244D01*
Y289370D01*
D02*
G37*
G36*
Y242126D02*
X286417D01*
X269685Y225394D01*
Y104331D01*
X246063Y80709D01*
X179134D01*
X166339Y93504D01*
Y135827D01*
X169291Y138779D01*
X179134D01*
X187008Y130905D01*
Y126969D01*
X191929Y122047D01*
X201772D01*
X215551Y108268D01*
X235236D01*
X242126Y115157D01*
Y227362D01*
X227362Y242126D01*
X209646D01*
Y264764D01*
X230315Y285433D01*
X297244D01*
Y242126D01*
D02*
G37*
%LPC*%
G36*
X276831Y511827D02*
X274350D01*
X271899Y511439D01*
X269539Y510672D01*
X267329Y509545D01*
X265321Y508087D01*
X263567Y506332D01*
X262108Y504325D01*
X260982Y502114D01*
X260215Y499754D01*
X259827Y497304D01*
Y494822D01*
X260215Y492372D01*
X260982Y490012D01*
X262108Y487801D01*
X263567Y485794D01*
X265321Y484039D01*
X267329Y482581D01*
X269539Y481454D01*
X271899Y480687D01*
X274350Y480299D01*
X276831D01*
X279282Y480687D01*
X281642Y481454D01*
X283853Y482581D01*
X285860Y484039D01*
X287614Y485794D01*
X289073Y487801D01*
X290199Y490012D01*
X290966Y492372D01*
X291354Y494822D01*
Y497304D01*
X290966Y499754D01*
X290199Y502114D01*
X289073Y504325D01*
X287614Y506332D01*
X285860Y508087D01*
X283853Y509545D01*
X281642Y510672D01*
X279282Y511439D01*
X276831Y511827D01*
D02*
G37*
G36*
X139036D02*
X136555D01*
X134104Y511439D01*
X131744Y510672D01*
X129533Y509545D01*
X127526Y508087D01*
X125771Y506332D01*
X124313Y504325D01*
X123186Y502114D01*
X122420Y499754D01*
X122031Y497304D01*
Y494822D01*
X122420Y492372D01*
X123186Y490012D01*
X124313Y487801D01*
X125771Y485794D01*
X127526Y484039D01*
X129533Y482581D01*
X131744Y481454D01*
X134104Y480687D01*
X136555Y480299D01*
X139036D01*
X141487Y480687D01*
X143846Y481454D01*
X146057Y482581D01*
X148065Y484039D01*
X149819Y485794D01*
X151278Y487801D01*
X152404Y490012D01*
X153171Y492372D01*
X153559Y494822D01*
Y497304D01*
X153171Y499754D01*
X152404Y502114D01*
X151278Y504325D01*
X149819Y506332D01*
X148065Y508087D01*
X146057Y509545D01*
X143846Y510672D01*
X141487Y511439D01*
X139036Y511827D01*
D02*
G37*
G36*
X123228Y475613D02*
X121837Y475430D01*
X120540Y474893D01*
X119426Y474038D01*
X118572Y472925D01*
X118035Y471628D01*
X117852Y470236D01*
Y463150D01*
X118035Y461758D01*
X118572Y460461D01*
X119426Y459348D01*
X120540Y458493D01*
X121837Y457956D01*
X123228Y457773D01*
X124620Y457956D01*
X125917Y458493D01*
X127030Y459348D01*
X127885Y460461D01*
X128422Y461758D01*
X128605Y463150D01*
Y470236D01*
X128422Y471628D01*
X127885Y472925D01*
X127030Y474038D01*
X125917Y474893D01*
X124620Y475430D01*
X123228Y475613D01*
D02*
G37*
G36*
X188909Y463598D02*
X187548D01*
X186214Y463333D01*
X184957Y462813D01*
X183826Y462057D01*
X182864Y461095D01*
X182109Y459964D01*
X181588Y458707D01*
X181323Y457373D01*
Y456013D01*
X181588Y454679D01*
X182109Y453422D01*
X182864Y452291D01*
X183826Y451329D01*
X184957Y450573D01*
X186214Y450053D01*
X187548Y449787D01*
X188909D01*
X190243Y450053D01*
X191499Y450573D01*
X192630Y451329D01*
X193592Y452291D01*
X194348Y453422D01*
X194869Y454679D01*
X195134Y456013D01*
Y457373D01*
X194869Y458707D01*
X194348Y459964D01*
X193592Y461095D01*
X192630Y462057D01*
X191499Y462813D01*
X190243Y463333D01*
X188909Y463598D01*
D02*
G37*
G36*
X173908D02*
X172548D01*
X171214Y463333D01*
X169957Y462813D01*
X168826Y462057D01*
X167865Y461095D01*
X167109Y459964D01*
X166588Y458707D01*
X166323Y457373D01*
Y456013D01*
X166588Y454679D01*
X167109Y453422D01*
X167865Y452291D01*
X168826Y451329D01*
X169957Y450573D01*
X171214Y450053D01*
X172548Y449787D01*
X173908D01*
X175243Y450053D01*
X176499Y450573D01*
X177630Y451329D01*
X178592Y452291D01*
X179348Y453422D01*
X179868Y454679D01*
X180134Y456013D01*
Y457373D01*
X179868Y458707D01*
X179348Y459964D01*
X178592Y461095D01*
X177630Y462057D01*
X176499Y462813D01*
X175243Y463333D01*
X173908Y463598D01*
D02*
G37*
G36*
X123228Y455613D02*
X121837Y455430D01*
X120540Y454893D01*
X119426Y454038D01*
X118572Y452925D01*
X118035Y451628D01*
X117852Y450236D01*
Y443150D01*
X118035Y441758D01*
X118572Y440461D01*
X119426Y439348D01*
X120540Y438493D01*
X121837Y437956D01*
X123228Y437773D01*
X124620Y437956D01*
X125917Y438493D01*
X127030Y439348D01*
X127885Y440461D01*
X128422Y441758D01*
X128605Y443150D01*
Y450236D01*
X128422Y451628D01*
X127885Y452925D01*
X127030Y454038D01*
X125917Y454893D01*
X124620Y455430D01*
X123228Y455613D01*
D02*
G37*
G36*
X276831Y94504D02*
X274350D01*
X271899Y94116D01*
X269539Y93349D01*
X267329Y92222D01*
X265321Y90764D01*
X263567Y89010D01*
X262108Y87002D01*
X260982Y84791D01*
X260215Y82432D01*
X259827Y79981D01*
Y77500D01*
X260215Y75049D01*
X260982Y72689D01*
X262108Y70478D01*
X263567Y68471D01*
X265321Y66716D01*
X267329Y65258D01*
X269539Y64131D01*
X271899Y63364D01*
X274350Y62976D01*
X276831D01*
X279282Y63364D01*
X281642Y64131D01*
X283853Y65258D01*
X285860Y66716D01*
X287614Y68471D01*
X289073Y70478D01*
X290199Y72689D01*
X290966Y75049D01*
X291354Y77500D01*
Y79981D01*
X290966Y82432D01*
X290199Y84791D01*
X289073Y87002D01*
X287614Y89010D01*
X285860Y90764D01*
X283853Y92222D01*
X281642Y93349D01*
X279282Y94116D01*
X276831Y94504D01*
D02*
G37*
G36*
X139036D02*
X136555D01*
X134104Y94116D01*
X131744Y93349D01*
X129533Y92222D01*
X127526Y90764D01*
X125771Y89010D01*
X124313Y87002D01*
X123186Y84791D01*
X122420Y82432D01*
X122031Y79981D01*
Y77500D01*
X122420Y75049D01*
X123186Y72689D01*
X124313Y70478D01*
X125771Y68471D01*
X127526Y66716D01*
X129533Y65258D01*
X131744Y64131D01*
X134104Y63364D01*
X136555Y62976D01*
X139036D01*
X141487Y63364D01*
X143846Y64131D01*
X146057Y65258D01*
X148065Y66716D01*
X149819Y68471D01*
X151278Y70478D01*
X152404Y72689D01*
X153171Y75049D01*
X153559Y77500D01*
Y79981D01*
X153171Y82432D01*
X152404Y84791D01*
X151278Y87002D01*
X149819Y89010D01*
X148065Y90764D01*
X146057Y92222D01*
X143846Y93349D01*
X141487Y94116D01*
X139036Y94504D01*
D02*
G37*
%LPD*%
D10*
X135473Y425001D02*
X136732Y426260D01*
D11*
X161614Y406496D02*
D03*
X169095D02*
D03*
X161614Y416339D02*
D03*
X169095D02*
D03*
D19*
X146772Y416299D02*
X161575D01*
X146732Y416260D02*
X146772Y416299D01*
X161575D02*
X161614Y416339D01*
X136811Y410433D02*
Y416181D01*
X136732Y416260D02*
X136811Y416181D01*
X140748Y406496D02*
X161614D01*
X136811Y410433D02*
X140748Y406496D01*
X174213D02*
Y416339D01*
Y383071D02*
Y406496D01*
X169095D02*
X174213D01*
X169095Y416339D02*
X174213D01*
Y420276D01*
X202756Y456220D02*
X203228Y456693D01*
X202756Y448819D02*
Y456220D01*
X174213Y420276D02*
X202756Y448819D01*
D20*
X174213Y113779D02*
D03*
Y130315D02*
D03*
X195866Y113779D02*
D03*
Y130315D02*
D03*
X174213Y295669D02*
D03*
Y279134D02*
D03*
X195866Y295669D02*
D03*
Y279134D02*
D03*
X174213Y146850D02*
D03*
Y163386D02*
D03*
X195866Y146850D02*
D03*
Y163386D02*
D03*
X174213Y262598D02*
D03*
Y246063D02*
D03*
X195866Y262598D02*
D03*
Y246063D02*
D03*
X174213Y229528D02*
D03*
Y179921D02*
D03*
Y196457D02*
D03*
Y212992D02*
D03*
X195866Y179921D02*
D03*
Y229528D02*
D03*
Y212992D02*
D03*
Y196457D02*
D03*
Y350000D02*
D03*
Y366535D02*
D03*
Y383071D02*
D03*
Y333465D02*
D03*
X174213Y366535D02*
D03*
Y350000D02*
D03*
Y333465D02*
D03*
Y383071D02*
D03*
D21*
X123228Y446693D02*
D03*
Y466693D02*
D03*
D22*
X203228Y456693D02*
D03*
X188228D02*
D03*
X173228D02*
D03*
D23*
X137795Y78740D02*
D03*
X275590D02*
D03*
X137795Y496063D02*
D03*
X275590D02*
D03*
D24*
X286417Y452756D02*
D03*
X225394D02*
D03*
X286417Y405512D02*
D03*
X225394D02*
D03*
X286417Y358268D02*
D03*
X225394D02*
D03*
X286417Y311024D02*
D03*
X225394D02*
D03*
Y263779D02*
D03*
X286417D02*
D03*
X225394Y216535D02*
D03*
X286417D02*
D03*
X225394Y169291D02*
D03*
X286417D02*
D03*
X225394Y122047D02*
D03*
X286417D02*
D03*
D25*
X136732Y416260D02*
D03*
X146732D02*
D03*
Y426260D02*
D03*
X136732D02*
D03*
M02*
