M48
;Layer_Color=9474304
;FILE_FORMAT=2:5
INCH,LZ
;TYPE=PLATED
T1F00S00C0.04291
T2F00S00C0.07087
T3F00S00C0.07283
T4F00S00C0.08268
T5F00S00C0.17717
%
T01
X0136732Y041626
X0146732
Y042626
X0136732
T02
X0174213Y0113779
Y0130315
Y014685
X0195866
Y0130315
Y0113779
Y0163386
Y0179921
Y0196457
Y0212992
Y0229528
Y0246063
Y0262598
Y0279134
Y0295669
X0174213
Y0279134
Y0262598
Y0246063
Y0229528
Y0212992
Y0196457
Y0179921
Y0163386
Y0333465
Y035
Y0366535
Y0383071
X0195866
Y0366535
Y035
Y0333465
T03
X0123228Y0446693
Y0466693
X0173228Y0456693
X0188228
X0203228
T04
X0225394Y0122047
X0286417
Y0169291
Y0216535
Y0263779
Y0311024
X0225394
Y0263779
Y0216535
Y0169291
Y0358268
Y0405512
Y0452756
X0286417
Y0405512
Y0358268
T05
X0137795Y007874
X027559
Y0496063
X0137795
M30
